<svg xmlns="http://www.w3.org/2000/svg" width="1800" height="1180" viewBox="0 0 1800 1180">
<defs>
<filter id="shadow" x="-20%" y="-20%" width="140%" height="140%"><feDropShadow dx="0" dy="8" stdDeviation="10" flood-color="#111827" flood-opacity="0.12"/></filter>
<marker id="arrow" markerWidth="14" markerHeight="14" refX="11" refY="7" orient="auto" markerUnits="strokeWidth"><path d="M2,2 L12,7 L2,12 z" fill="#374151"/></marker>
<linearGradient id="hero" x1="0" x2="1"><stop offset="0" stop-color="#FF6B2C"/><stop offset="1" stop-color="#7C3AED"/></linearGradient>
</defs>
<rect width="1800" height="1180" fill="#FFF8F1"/>
<line x1="40" y1="0" x2="40" y2="1180" stroke="#F5E7DA" stroke-width="1" opacity="0.45"/>
<line x1="80" y1="0" x2="80" y2="1180" stroke="#F5E7DA" stroke-width="1" opacity="0.45"/>
<line x1="120" y1="0" x2="120" y2="1180" stroke="#F5E7DA" stroke-width="1" opacity="0.45"/>
<line x1="160" y1="0" x2="160" y2="1180" stroke="#F5E7DA" stroke-width="1" opacity="0.45"/>
<line x1="200" y1="0" x2="200" y2="1180" stroke="#F5E7DA" stroke-width="1" opacity="0.45"/>
<line x1="240" y1="0" x2="240" y2="1180" stroke="#F5E7DA" stroke-width="1" opacity="0.45"/>
<line x1="280" y1="0" x2="280" y2="1180" stroke="#F5E7DA" stroke-width="1" opacity="0.45"/>
<line x1="320" y1="0" x2="320" y2="1180" stroke="#F5E7DA" stroke-width="1" opacity="0.45"/>
<line x1="360" y1="0" x2="360" y2="1180" stroke="#F5E7DA" stroke-width="1" opacity="0.45"/>
<line x1="400" y1="0" x2="400" y2="1180" stroke="#F5E7DA" stroke-width="1" opacity="0.45"/>
<line x1="440" y1="0" x2="440" y2="1180" stroke="#F5E7DA" stroke-width="1" opacity="0.45"/>
<line x1="480" y1="0" x2="480" y2="1180" stroke="#F5E7DA" stroke-width="1" opacity="0.45"/>
<line x1="520" y1="0" x2="520" y2="1180" stroke="#F5E7DA" stroke-width="1" opacity="0.45"/>
<line x1="560" y1="0" x2="560" y2="1180" stroke="#F5E7DA" stroke-width="1" opacity="0.45"/>
<line x1="600" y1="0" x2="600" y2="1180" stroke="#F5E7DA" stroke-width="1" opacity="0.45"/>
<line x1="640" y1="0" x2="640" y2="1180" stroke="#F5E7DA" stroke-width="1" opacity="0.45"/>
<line x1="680" y1="0" x2="680" y2="1180" stroke="#F5E7DA" stroke-width="1" opacity="0.45"/>
<line x1="720" y1="0" x2="720" y2="1180" stroke="#F5E7DA" stroke-width="1" opacity="0.45"/>
<line x1="760" y1="0" x2="760" y2="1180" stroke="#F5E7DA" stroke-width="1" opacity="0.45"/>
<line x1="800" y1="0" x2="800" y2="1180" stroke="#F5E7DA" stroke-width="1" opacity="0.45"/>
<line x1="840" y1="0" x2="840" y2="1180" stroke="#F5E7DA" stroke-width="1" opacity="0.45"/>
<line x1="880" y1="0" x2="880" y2="1180" stroke="#F5E7DA" stroke-width="1" opacity="0.45"/>
<line x1="920" y1="0" x2="920" y2="1180" stroke="#F5E7DA" stroke-width="1" opacity="0.45"/>
<line x1="960" y1="0" x2="960" y2="1180" stroke="#F5E7DA" stroke-width="1" opacity="0.45"/>
<line x1="1000" y1="0" x2="1000" y2="1180" stroke="#F5E7DA" stroke-width="1" opacity="0.45"/>
<line x1="1040" y1="0" x2="1040" y2="1180" stroke="#F5E7DA" stroke-width="1" opacity="0.45"/>
<line x1="1080" y1="0" x2="1080" y2="1180" stroke="#F5E7DA" stroke-width="1" opacity="0.45"/>
<line x1="1120" y1="0" x2="1120" y2="1180" stroke="#F5E7DA" stroke-width="1" opacity="0.45"/>
<line x1="1160" y1="0" x2="1160" y2="1180" stroke="#F5E7DA" stroke-width="1" opacity="0.45"/>
<line x1="1200" y1="0" x2="1200" y2="1180" stroke="#F5E7DA" stroke-width="1" opacity="0.45"/>
<line x1="1240" y1="0" x2="1240" y2="1180" stroke="#F5E7DA" stroke-width="1" opacity="0.45"/>
<line x1="1280" y1="0" x2="1280" y2="1180" stroke="#F5E7DA" stroke-width="1" opacity="0.45"/>
<line x1="1320" y1="0" x2="1320" y2="1180" stroke="#F5E7DA" stroke-width="1" opacity="0.45"/>
<line x1="1360" y1="0" x2="1360" y2="1180" stroke="#F5E7DA" stroke-width="1" opacity="0.45"/>
<line x1="1400" y1="0" x2="1400" y2="1180" stroke="#F5E7DA" stroke-width="1" opacity="0.45"/>
<line x1="1440" y1="0" x2="1440" y2="1180" stroke="#F5E7DA" stroke-width="1" opacity="0.45"/>
<line x1="1480" y1="0" x2="1480" y2="1180" stroke="#F5E7DA" stroke-width="1" opacity="0.45"/>
<line x1="1520" y1="0" x2="1520" y2="1180" stroke="#F5E7DA" stroke-width="1" opacity="0.45"/>
<line x1="1560" y1="0" x2="1560" y2="1180" stroke="#F5E7DA" stroke-width="1" opacity="0.45"/>
<line x1="1600" y1="0" x2="1600" y2="1180" stroke="#F5E7DA" stroke-width="1" opacity="0.45"/>
<line x1="1640" y1="0" x2="1640" y2="1180" stroke="#F5E7DA" stroke-width="1" opacity="0.45"/>
<line x1="1680" y1="0" x2="1680" y2="1180" stroke="#F5E7DA" stroke-width="1" opacity="0.45"/>
<line x1="1720" y1="0" x2="1720" y2="1180" stroke="#F5E7DA" stroke-width="1" opacity="0.45"/>
<line x1="1760" y1="0" x2="1760" y2="1180" stroke="#F5E7DA" stroke-width="1" opacity="0.45"/>
<line x1="0" y1="40" x2="1800" y2="40" stroke="#F5E7DA" stroke-width="1" opacity="0.45"/>
<line x1="0" y1="80" x2="1800" y2="80" stroke="#F5E7DA" stroke-width="1" opacity="0.45"/>
<line x1="0" y1="120" x2="1800" y2="120" stroke="#F5E7DA" stroke-width="1" opacity="0.45"/>
<line x1="0" y1="160" x2="1800" y2="160" stroke="#F5E7DA" stroke-width="1" opacity="0.45"/>
<line x1="0" y1="200" x2="1800" y2="200" stroke="#F5E7DA" stroke-width="1" opacity="0.45"/>
<line x1="0" y1="240" x2="1800" y2="240" stroke="#F5E7DA" stroke-width="1" opacity="0.45"/>
<line x1="0" y1="280" x2="1800" y2="280" stroke="#F5E7DA" stroke-width="1" opacity="0.45"/>
<line x1="0" y1="320" x2="1800" y2="320" stroke="#F5E7DA" stroke-width="1" opacity="0.45"/>
<line x1="0" y1="360" x2="1800" y2="360" stroke="#F5E7DA" stroke-width="1" opacity="0.45"/>
<line x1="0" y1="400" x2="1800" y2="400" stroke="#F5E7DA" stroke-width="1" opacity="0.45"/>
<line x1="0" y1="440" x2="1800" y2="440" stroke="#F5E7DA" stroke-width="1" opacity="0.45"/>
<line x1="0" y1="480" x2="1800" y2="480" stroke="#F5E7DA" stroke-width="1" opacity="0.45"/>
<line x1="0" y1="520" x2="1800" y2="520" stroke="#F5E7DA" stroke-width="1" opacity="0.45"/>
<line x1="0" y1="560" x2="1800" y2="560" stroke="#F5E7DA" stroke-width="1" opacity="0.45"/>
<line x1="0" y1="600" x2="1800" y2="600" stroke="#F5E7DA" stroke-width="1" opacity="0.45"/>
<line x1="0" y1="640" x2="1800" y2="640" stroke="#F5E7DA" stroke-width="1" opacity="0.45"/>
<line x1="0" y1="680" x2="1800" y2="680" stroke="#F5E7DA" stroke-width="1" opacity="0.45"/>
<line x1="0" y1="720" x2="1800" y2="720" stroke="#F5E7DA" stroke-width="1" opacity="0.45"/>
<line x1="0" y1="760" x2="1800" y2="760" stroke="#F5E7DA" stroke-width="1" opacity="0.45"/>
<line x1="0" y1="800" x2="1800" y2="800" stroke="#F5E7DA" stroke-width="1" opacity="0.45"/>
<line x1="0" y1="840" x2="1800" y2="840" stroke="#F5E7DA" stroke-width="1" opacity="0.45"/>
<line x1="0" y1="880" x2="1800" y2="880" stroke="#F5E7DA" stroke-width="1" opacity="0.45"/>
<line x1="0" y1="920" x2="1800" y2="920" stroke="#F5E7DA" stroke-width="1" opacity="0.45"/>
<line x1="0" y1="960" x2="1800" y2="960" stroke="#F5E7DA" stroke-width="1" opacity="0.45"/>
<line x1="0" y1="1000" x2="1800" y2="1000" stroke="#F5E7DA" stroke-width="1" opacity="0.45"/>
<line x1="0" y1="1040" x2="1800" y2="1040" stroke="#F5E7DA" stroke-width="1" opacity="0.45"/>
<line x1="0" y1="1080" x2="1800" y2="1080" stroke="#F5E7DA" stroke-width="1" opacity="0.45"/>
<line x1="0" y1="1120" x2="1800" y2="1120" stroke="#F5E7DA" stroke-width="1" opacity="0.45"/>
<line x1="0" y1="1160" x2="1800" y2="1160" stroke="#F5E7DA" stroke-width="1" opacity="0.45"/>
<text x="70" y="78" font-family="Inter, Arial, sans-serif" font-size="42" font-weight="800" fill="#111827">CareTrust / CareSignal Architecture</text>
<text x="70" y="116" font-family="Inter, Arial, sans-serif" font-size="18" fill="#5B6472">Raw healthcare datasets → silver cleansing → gold trust/enrichment → Lakebase sync → Databricks App, assistant, maps, and voice workflows</text>
<rect x="70" y="139" width="1660" height="8" rx="4" fill="url(#hero)"/>
<rect x="70" y="175" width="292" height="86" rx="22" fill="#DBEAFE" stroke="#2563EB" stroke-width="2.5" filter="url(#shadow)"/>
<circle cx="108" cy="218" r="24" fill="#2563EB"/>
<text x="108" y="227" text-anchor="middle" font-family="Inter, Arial" font-size="23" font-weight="800" fill="white">1</text>
<text x="145" y="209" font-family="Inter, Arial" font-size="24" font-weight="800" fill="#1F2937">Raw / Bronze</text>
<text x="145" y="236" font-family="Inter, Arial" font-size="24" font-weight="800" fill="#1F2937">Sources</text>
<rect x="402" y="175" width="292" height="86" rx="22" fill="#D7F5F0" stroke="#0F9F8F" stroke-width="2.5" filter="url(#shadow)"/>
<circle cx="440" cy="218" r="24" fill="#0F9F8F"/>
<text x="440" y="227" text-anchor="middle" font-family="Inter, Arial" font-size="23" font-weight="800" fill="white">2</text>
<text x="477" y="209" font-family="Inter, Arial" font-size="24" font-weight="800" fill="#1F2937">Silver</text>
<text x="477" y="236" font-family="Inter, Arial" font-size="24" font-weight="800" fill="#1F2937">Cleansing</text>
<rect x="734" y="175" width="292" height="86" rx="22" fill="#FEF3C7" stroke="#D97706" stroke-width="2.5" filter="url(#shadow)"/>
<circle cx="772" cy="218" r="24" fill="#D97706"/>
<text x="772" y="227" text-anchor="middle" font-family="Inter, Arial" font-size="23" font-weight="800" fill="white">3</text>
<text x="809" y="209" font-family="Inter, Arial" font-size="24" font-weight="800" fill="#1F2937">Gold</text>
<text x="809" y="236" font-family="Inter, Arial" font-size="24" font-weight="800" fill="#1F2937">Enrichment</text>
<rect x="1066" y="175" width="292" height="86" rx="22" fill="#EDE9FE" stroke="#7C3AED" stroke-width="2.5" filter="url(#shadow)"/>
<circle cx="1104" cy="218" r="24" fill="#7C3AED"/>
<text x="1104" y="227" text-anchor="middle" font-family="Inter, Arial" font-size="23" font-weight="800" fill="white">4</text>
<text x="1141" y="209" font-family="Inter, Arial" font-size="24" font-weight="800" fill="#1F2937">Persist &amp;</text>
<text x="1141" y="236" font-family="Inter, Arial" font-size="24" font-weight="800" fill="#1F2937">Synchronize</text>
<rect x="1398" y="175" width="332" height="86" rx="22" fill="#DCFCE7" stroke="#15803D" stroke-width="2.5" filter="url(#shadow)"/>
<circle cx="1436" cy="218" r="24" fill="#15803D"/>
<text x="1436" y="227" text-anchor="middle" font-family="Inter, Arial" font-size="23" font-weight="800" fill="white">5</text>
<text x="1473" y="209" font-family="Inter, Arial" font-size="24" font-weight="800" fill="#1F2937">Databricks App</text>
<text x="1473" y="236" font-family="Inter, Arial" font-size="24" font-weight="800" fill="#1F2937">Experience</text>
<rect x="70" y="305" width="292" height="142" rx="18" fill="#FFFFFF" stroke="#2563EB" stroke-width="2" filter="url(#shadow)"/>
<rect x="70" y="305" width="10" height="142" rx="5" fill="#2563EB"/>
<text x="94" y="337" font-family="Inter, Arial" font-size="18" font-weight="800" fill="#1F2937">Facilities source</text>
<text x="94" y="363" font-family="Inter, Arial" font-size="14" fill="#5B6472">`databricks_virtue_foundation_dataset_dais_2026.virtue_foundation_dataset.facilities`</text>
<text x="94" y="384" font-family="Inter, Arial" font-size="14" fill="#5B6472">Raw facility identity, contacts,</text>
<text x="94" y="405" font-family="Inter, Arial" font-size="14" fill="#5B6472">evidence fields, service claims,</text>
<text x="94" y="426" font-family="Inter, Arial" font-size="14" fill="#5B6472">locations.</text>
<rect x="70" y="495" width="292" height="128" rx="18" fill="#FFFFFF" stroke="#2563EB" stroke-width="2" filter="url(#shadow)"/>
<rect x="70" y="495" width="10" height="128" rx="5" fill="#2563EB"/>
<text x="94" y="527" font-family="Inter, Arial" font-size="18" font-weight="800" fill="#1F2937">India Post source</text>
<text x="94" y="553" font-family="Inter, Arial" font-size="14" fill="#5B6472">`...virtue_foundation_dataset.india_post_pincode_directory`</text>
<text x="94" y="574" font-family="Inter, Arial" font-size="14" fill="#5B6472">Postal offices, pincode,</text>
<text x="94" y="595" font-family="Inter, Arial" font-size="14" fill="#5B6472">district/state, latitude/longitude</text>
<text x="94" y="616" font-family="Inter, Arial" font-size="14" fill="#5B6472">fields.</text>
<rect x="70" y="670" width="292" height="110" rx="18" fill="#FFFFFF" stroke="#2563EB" stroke-width="2" filter="url(#shadow)"/>
<rect x="70" y="670" width="10" height="110" rx="5" fill="#2563EB"/>
<text x="94" y="702" font-family="Inter, Arial" font-size="18" font-weight="800" fill="#1F2937">NFHS-5 health indicators</text>
<text x="94" y="728" font-family="Inter, Arial" font-size="14" fill="#5B6472">`...nfhs_5_district_health_indicators`</text>
<text x="94" y="749" font-family="Inter, Arial" font-size="14" fill="#5B6472">District health context reserved</text>
<text x="94" y="770" font-family="Inter, Arial" font-size="14" fill="#5B6472">for downstream planning signals.</text>
<rect x="402" y="305" width="292" height="142" rx="18" fill="#FFFFFF" stroke="#0F9F8F" stroke-width="2" filter="url(#shadow)"/>
<rect x="402" y="305" width="10" height="142" rx="5" fill="#0F9F8F"/>
<text x="426" y="337" font-family="Inter, Arial" font-size="18" font-weight="800" fill="#1F2937">Facilities Bronze → Silver</text>
<text x="426" y="363" font-family="Inter, Arial" font-size="14" fill="#5B6472">Notebook:</text>
<text x="426" y="384" font-family="Inter, Arial" font-size="14" fill="#5B6472">`facilities_bronze_to_silver.py`</text>
<text x="426" y="405" font-family="Inter, Arial" font-size="14" fill="#5B6472">Standardize facility names,</text>
<text x="426" y="426" font-family="Inter, Arial" font-size="14" fill="#5B6472">preserve acronyms, remove junk</text>
<text x="426" y="447" font-family="Inter, Arial" font-size="14" fill="#5B6472">descriptions, clean</text>
<text x="426" y="468" font-family="Inter, Arial" font-size="14" fill="#5B6472">city/state/postcode.</text>
<rect x="402" y="495" width="292" height="142" rx="18" fill="#FFFFFF" stroke="#0F9F8F" stroke-width="2" filter="url(#shadow)"/>
<rect x="402" y="495" width="10" height="142" rx="5" fill="#0F9F8F"/>
<text x="426" y="527" font-family="Inter, Arial" font-size="18" font-weight="800" fill="#1F2937">Pincode Bronze → Silver</text>
<text x="426" y="553" font-family="Inter, Arial" font-size="14" fill="#5B6472">Notebook:</text>
<text x="426" y="574" font-family="Inter, Arial" font-size="14" fill="#5B6472">`india_post_pincode_directory_bronze_to_silver.py`</text>
<text x="426" y="595" font-family="Inter, Arial" font-size="14" fill="#5B6472">Normalize postal/location text,</text>
<text x="426" y="616" font-family="Inter, Arial" font-size="14" fill="#5B6472">validate 6-digit pincodes, fix</text>
<text x="426" y="637" font-family="Inter, Arial" font-size="14" fill="#5B6472">known district/city aliases.</text>
<rect x="402" y="684" width="292" height="96" rx="18" fill="#D7F5F0" stroke="#0F9F8F" stroke-width="2" filter="url(#shadow)"/>
<rect x="402" y="684" width="10" height="96" rx="5" fill="#0F9F8F"/>
<text x="426" y="716" font-family="Inter, Arial" font-size="18" font-weight="800" fill="#1F2937">Silver schemas</text>
<text x="426" y="742" font-family="Inter, Arial" font-size="14" fill="#5B6472">`FacilityTrustDesk.virtue_silver.facilities`</text>
<text x="426" y="763" font-family="Inter, Arial" font-size="14" fill="#5B6472">`FacilityTrustDesk.virtue_silver.india_post_pincode_directory`</text>
<rect x="734" y="290" width="292" height="172" rx="18" fill="#FFFFFF" stroke="#D97706" stroke-width="2" filter="url(#shadow)"/>
<rect x="734" y="290" width="10" height="172" rx="5" fill="#D97706"/>
<text x="758" y="322" font-family="Inter, Arial" font-size="18" font-weight="800" fill="#1F2937">Facilities Silver → Gold</text>
<text x="758" y="348" font-family="Inter, Arial" font-size="14" fill="#5B6472">Notebook:</text>
<text x="758" y="369" font-family="Inter, Arial" font-size="14" fill="#5B6472">`facilities_silver_to_gold.py`</text>
<text x="758" y="390" font-family="Inter, Arial" font-size="14" fill="#5B6472">Service tags, trust-score</text>
<text x="758" y="411" font-family="Inter, Arial" font-size="14" fill="#5B6472">components,</text>
<text x="758" y="432" font-family="Inter, Arial" font-size="14" fill="#5B6472">`facility_trust_score`,</text>
<text x="758" y="453" font-family="Inter, Arial" font-size="14" fill="#5B6472">`trust_tier`, `review_flag`,</text>
<text x="758" y="474" font-family="Inter, Arial" font-size="14" fill="#5B6472">`primary_service_tag`, source text</text>
<text x="758" y="495" font-family="Inter, Arial" font-size="14" fill="#5B6472">blob.</text>
<rect x="734" y="500" width="292" height="162" rx="18" fill="#FFFFFF" stroke="#D97706" stroke-width="2" filter="url(#shadow)"/>
<rect x="734" y="500" width="10" height="162" rx="5" fill="#D97706"/>
<text x="758" y="532" font-family="Inter, Arial" font-size="18" font-weight="800" fill="#1F2937">Pincode Silver → Gold</text>
<text x="758" y="558" font-family="Inter, Arial" font-size="14" fill="#5B6472">Notebook:</text>
<text x="758" y="579" font-family="Inter, Arial" font-size="14" fill="#5B6472">`india_post_pincode_directory_silver_to_gold.py`</text>
<text x="758" y="600" font-family="Inter, Arial" font-size="14" fill="#5B6472">Canonical</text>
<text x="758" y="621" font-family="Inter, Arial" font-size="14" fill="#5B6472">district/state/city/office, parse</text>
<text x="758" y="642" font-family="Inter, Arial" font-size="14" fill="#5B6472">pincode + lat/lon, validation</text>
<text x="758" y="663" font-family="Inter, Arial" font-size="14" fill="#5B6472">flags, quality notes.</text>
<rect x="734" y="705" width="292" height="116" rx="18" fill="#FEF3C7" stroke="#D97706" stroke-width="2" filter="url(#shadow)"/>
<rect x="734" y="705" width="10" height="116" rx="5" fill="#D97706"/>
<text x="758" y="737" font-family="Inter, Arial" font-size="18" font-weight="800" fill="#1F2937">Gold Delta tables</text>
<text x="758" y="763" font-family="Inter, Arial" font-size="14" fill="#5B6472">`FacilityTrustDesk.virtue_gold.facilities`</text>
<text x="758" y="784" font-family="Inter, Arial" font-size="14" fill="#5B6472">`FacilityTrustDesk.virtue_gold.india_post_pincode_directory`</text>
<text x="758" y="805" font-family="Inter, Arial" font-size="14" fill="#5B6472">Persisted analytical layer.</text>
<rect x="1066" y="300" width="292" height="158" rx="18" fill="#FFFFFF" stroke="#7C3AED" stroke-width="2" filter="url(#shadow)"/>
<rect x="1066" y="300" width="10" height="158" rx="5" fill="#7C3AED"/>
<text x="1090" y="332" font-family="Inter, Arial" font-size="18" font-weight="800" fill="#1F2937">Lakebase synced tables</text>
<text x="1090" y="358" font-family="Inter, Arial" font-size="14" fill="#5B6472">`lakebase_hackathon_demo.public.facilities_gold_sync`</text>
<text x="1090" y="379" font-family="Inter, Arial" font-size="14" fill="#5B6472">`...india_post_pincode_directory_gold_sync`</text>
<text x="1090" y="400" font-family="Inter, Arial" font-size="14" fill="#5B6472">Queryable by app through Databricks</text>
<text x="1090" y="421" font-family="Inter, Arial" font-size="14" fill="#5B6472">SQL.</text>
<rect x="1066" y="500" width="292" height="146" rx="18" fill="#FFFFFF" stroke="#7C3AED" stroke-width="2" filter="url(#shadow)"/>
<rect x="1066" y="500" width="10" height="146" rx="5" fill="#7C3AED"/>
<text x="1090" y="532" font-family="Inter, Arial" font-size="18" font-weight="800" fill="#1F2937">Derived app dimensions</text>
<text x="1090" y="558" font-family="Inter, Arial" font-size="14" fill="#5B6472">`caresignal_service_specialty_groups`</text>
<text x="1090" y="579" font-family="Inter, Arial" font-size="14" fill="#5B6472">— 7 service groups</text>
<text x="1090" y="600" font-family="Inter, Arial" font-size="14" fill="#5B6472">`caresignal_location_dimension` —</text>
<text x="1090" y="621" font-family="Inter, Arial" font-size="14" fill="#5B6472">21,162 deduped rows from 165,627</text>
<text x="1090" y="642" font-family="Inter, Arial" font-size="14" fill="#5B6472">India Post rows.</text>
<rect x="1066" y="695" width="292" height="146" rx="18" fill="#EDE9FE" stroke="#7C3AED" stroke-width="2" filter="url(#shadow)"/>
<rect x="1066" y="695" width="10" height="146" rx="5" fill="#7C3AED"/>
<text x="1090" y="727" font-family="Inter, Arial" font-size="18" font-weight="800" fill="#1F2937">User feedback tables</text>
<text x="1090" y="753" font-family="Inter, Arial" font-size="14" fill="#5B6472">`facility_human_verifications`</text>
<text x="1090" y="774" font-family="Inter, Arial" font-size="14" fill="#5B6472">`planner_shortlists`</text>
<text x="1090" y="795" font-family="Inter, Arial" font-size="14" fill="#5B6472">`voice_assistant_sessions/turns`</text>
<text x="1090" y="816" font-family="Inter, Arial" font-size="14" fill="#5B6472">`facility_call_logs`</text>
<rect x="1398" y="282" width="332" height="134" rx="18" fill="#FFFFFF" stroke="#15803D" stroke-width="2" filter="url(#shadow)"/>
<rect x="1398" y="282" width="10" height="134" rx="5" fill="#15803D"/>
<text x="1422" y="314" font-family="Inter, Arial" font-size="18" font-weight="800" fill="#1F2937">Databricks App runtime</text>
<text x="1422" y="340" font-family="Inter, Arial" font-size="14" fill="#5B6472">`app.yaml`: `python -m backend.main`</text>
<text x="1422" y="361" font-family="Inter, Arial" font-size="14" fill="#5B6472">FastAPI serves APIs + static React</text>
<text x="1422" y="382" font-family="Inter, Arial" font-size="14" fill="#5B6472">build. Uses warehouse</text>
<text x="1422" y="403" font-family="Inter, Arial" font-size="14" fill="#5B6472">`01d40772d8293b41` and fallback demo</text>
<text x="1422" y="424" font-family="Inter, Arial" font-size="14" fill="#5B6472">data.</text>
<rect x="1398" y="452" width="332" height="166" rx="18" fill="#FFFFFF" stroke="#15803D" stroke-width="2" filter="url(#shadow)"/>
<rect x="1398" y="452" width="10" height="166" rx="5" fill="#15803D"/>
<text x="1422" y="484" font-family="Inter, Arial" font-size="18" font-weight="800" fill="#1F2937">Backend API + scoring</text>
<text x="1422" y="510" font-family="Inter, Arial" font-size="14" fill="#5B6472">FastAPI routes: `/api/facilities/top`,</text>
<text x="1422" y="531" font-family="Inter, Arial" font-size="14" fill="#5B6472">`/api/trust-card`,</text>
<text x="1422" y="552" font-family="Inter, Arial" font-size="14" fill="#5B6472">`/api/verifications`,</text>
<text x="1422" y="573" font-family="Inter, Arial" font-size="14" fill="#5B6472">`/api/assistant/query`, `/api/voice/*`.</text>
<text x="1422" y="594" font-family="Inter, Arial" font-size="14" fill="#5B6472">Deterministic score out of 10 with</text>
<text x="1422" y="615" font-family="Inter, Arial" font-size="14" fill="#5B6472">uncertainty flags.</text>
<rect x="1398" y="660" width="332" height="150" rx="18" fill="#FFFFFF" stroke="#15803D" stroke-width="2" filter="url(#shadow)"/>
<rect x="1398" y="660" width="10" height="150" rx="5" fill="#15803D"/>
<text x="1422" y="692" font-family="Inter, Arial" font-size="18" font-weight="800" fill="#1F2937">React CareTrust UI</text>
<text x="1422" y="718" font-family="Inter, Arial" font-size="14" fill="#5B6472">Tabs: Explorer, Map + Radius,</text>
<text x="1422" y="739" font-family="Inter, Arial" font-size="14" fill="#5B6472">Verification, Chat Assistant. Filters</text>
<text x="1422" y="760" font-family="Inter, Arial" font-size="14" fill="#5B6472">by country/state/city/postal</text>
<text x="1422" y="781" font-family="Inter, Arial" font-size="14" fill="#5B6472">code/service/focus/radius. Trust Cards</text>
<text x="1422" y="802" font-family="Inter, Arial" font-size="14" fill="#5B6472">explain evidence.</text>
<rect x="1398" y="850" width="332" height="138" rx="18" fill="#DCFCE7" stroke="#15803D" stroke-width="2" filter="url(#shadow)"/>
<rect x="1398" y="850" width="10" height="138" rx="5" fill="#15803D"/>
<text x="1422" y="882" font-family="Inter, Arial" font-size="18" font-weight="800" fill="#1F2937">Agent + voice channels</text>
<text x="1422" y="908" font-family="Inter, Arial" font-size="14" fill="#5B6472">Template-safe chart assistant, Gemini</text>
<text x="1422" y="929" font-family="Inter, Arial" font-size="14" fill="#5B6472">Live sample/status hooks, Twilio phone</text>
<text x="1422" y="950" font-family="Inter, Arial" font-size="14" fill="#5B6472">webhook. Human verification and</text>
<text x="1422" y="971" font-family="Inter, Arial" font-size="14" fill="#5B6472">shortlists write back to Lakebase.</text>
<path d="M362,376 C382.0,376 382.0,376 402,376" fill="none" stroke="#374151" stroke-width="3" marker-end="url(#arrow)" opacity="0.85"/>
<path d="M362,566 C382.0,566 382.0,566 402,566" fill="none" stroke="#374151" stroke-width="3" marker-end="url(#arrow)" opacity="0.85"/>
<path d="M362,735 C382.0,735 382.0,735 402,735" fill="none" stroke="#374151" stroke-width="3" marker-end="url(#arrow)" opacity="0.85"/>
<path d="M694,376 C714.0,376 714.0,376 734,376" fill="none" stroke="#374151" stroke-width="3" marker-end="url(#arrow)" opacity="0.85"/>
<path d="M694,566 C714.0,566 714.0,566 734,566" fill="none" stroke="#374151" stroke-width="3" marker-end="url(#arrow)" opacity="0.85"/>
<path d="M1026,376 C1046.0,376 1046.0,376 1066,376" fill="none" stroke="#374151" stroke-width="3" marker-end="url(#arrow)" opacity="0.85"/>
<rect x="988.0" y="358.0" width="116" height="28" rx="14" fill="#FFFFFF" stroke="#E5E7EB"/>
<text x="1046.0" y="377.0" text-anchor="middle" font-family="Inter, Arial" font-size="12" font-weight="800" fill="#374151">sync</text>
<path d="M1026,566 C1046.0,566 1046.0,566 1066,566" fill="none" stroke="#374151" stroke-width="3" marker-end="url(#arrow)" opacity="0.85"/>
<rect x="988.0" y="548.0" width="116" height="28" rx="14" fill="#FFFFFF" stroke="#E5E7EB"/>
<text x="1046.0" y="567.0" text-anchor="middle" font-family="Inter, Arial" font-size="12" font-weight="800" fill="#374151">sync</text>
<path d="M1026,763 C1046.0,763 1046.0,763 1066,763" fill="none" stroke="#374151" stroke-width="3" marker-end="url(#arrow)" opacity="0.85"/>
<rect x="988.0" y="745.0" width="116" height="28" rx="14" fill="#FFFFFF" stroke="#E5E7EB"/>
<text x="1046.0" y="764.0" text-anchor="middle" font-family="Inter, Arial" font-size="12" font-weight="800" fill="#374151">publish</text>
<path d="M1358,376 C1378.0,376 1378.0,349 1398,349" fill="none" stroke="#374151" stroke-width="3" marker-end="url(#arrow)" opacity="0.85"/>
<rect x="1320.0" y="344.5" width="116" height="28" rx="14" fill="#FFFFFF" stroke="#E5E7EB"/>
<text x="1378.0" y="363.5" text-anchor="middle" font-family="Inter, Arial" font-size="12" font-weight="800" fill="#374151">read</text>
<path d="M1358,573 C1378.0,573 1378.0,535 1398,535" fill="none" stroke="#374151" stroke-width="3" marker-end="url(#arrow)" opacity="0.85"/>
<rect x="1320.0" y="536.0" width="116" height="28" rx="14" fill="#FFFFFF" stroke="#E5E7EB"/>
<text x="1378.0" y="555.0" text-anchor="middle" font-family="Inter, Arial" font-size="12" font-weight="800" fill="#374151">serve</text>
<path d="M1358,768 C1378.0,768 1378.0,919 1398,919" fill="none" stroke="#374151" stroke-width="3" marker-end="url(#arrow)" opacity="0.85"/>
<rect x="1320.0" y="825.5" width="116" height="28" rx="14" fill="#FFFFFF" stroke="#E5E7EB"/>
<text x="1378.0" y="844.5" text-anchor="middle" font-family="Inter, Arial" font-size="12" font-weight="800" fill="#374151">writeback</text>
<path d="M1564,416 C1564.0,416 1564.0,452 1564,452" fill="none" stroke="#374151" stroke-width="3" marker-end="url(#arrow)" opacity="0.85"/>
<path d="M1564,618 C1564.0,618 1564.0,660 1564,660" fill="none" stroke="#374151" stroke-width="3" marker-end="url(#arrow)" opacity="0.85"/>
<path d="M1564,810 C1564.0,810 1564.0,850 1564,850" fill="none" stroke="#374151" stroke-width="3" marker-end="url(#arrow)" opacity="0.85"/>
<rect x="70" y="1028" width="1660" height="98" rx="24" fill="#111827" opacity="0.96" filter="url(#shadow)"/>
<text x="102" y="1065" font-family="Inter, Arial" font-size="21" font-weight="800" fill="white">Trust logic surfaced to users</text>
<rect x="102" y="1081" width="144" height="30" rx="15" fill="white" stroke="#FF6B2C" stroke-width="1.5"/>
<text x="114" y="1101" font-family="Inter, Arial" font-size="13" font-weight="700" fill="#FF6B2C">specialty match</text>
<rect x="256" y="1081" width="144" height="30" rx="15" fill="white" stroke="#FF6B2C" stroke-width="1.5"/>
<text x="268" y="1101" font-family="Inter, Arial" font-size="13" font-weight="700" fill="#FF6B2C">procedure match</text>
<rect x="410" y="1081" width="96" height="30" rx="15" fill="white" stroke="#FF6B2C" stroke-width="1.5"/>
<text x="422" y="1101" font-family="Inter, Arial" font-size="13" font-weight="700" fill="#FF6B2C">equipment</text>
<rect x="516" y="1081" width="104" height="30" rx="15" fill="white" stroke="#FF6B2C" stroke-width="1.5"/>
<text x="528" y="1101" font-family="Inter, Arial" font-size="13" font-weight="700" fill="#FF6B2C">capability</text>
<rect x="630" y="1081" width="112" height="30" rx="15" fill="white" stroke="#FF6B2C" stroke-width="1.5"/>
<text x="642" y="1101" font-family="Inter, Arial" font-size="13" font-weight="700" fill="#FF6B2C">description</text>
<rect x="752" y="1081" width="104" height="30" rx="15" fill="white" stroke="#FF6B2C" stroke-width="1.5"/>
<text x="764" y="1101" font-family="Inter, Arial" font-size="13" font-weight="700" fill="#FF6B2C">source URL</text>
<rect x="866" y="1081" width="136" height="30" rx="15" fill="white" stroke="#FF6B2C" stroke-width="1.5"/>
<text x="878" y="1101" font-family="Inter, Arial" font-size="13" font-weight="700" fill="#FF6B2C">contactability</text>
<rect x="1012" y="1081" width="92" height="30" rx="15" fill="white" stroke="#FF6B2C" stroke-width="1.5"/>
<text x="1024" y="1101" font-family="Inter, Arial" font-size="13" font-weight="700" fill="#FF6B2C">location</text>
<rect x="1114" y="1081" width="168" height="30" rx="15" fill="white" stroke="#FF6B2C" stroke-width="1.5"/>
<text x="1126" y="1101" font-family="Inter, Arial" font-size="13" font-weight="700" fill="#FF6B2C">human verification</text>
<rect x="1292" y="1081" width="96" height="30" rx="15" fill="white" stroke="#FF6B2C" stroke-width="1.5"/>
<text x="1304" y="1101" font-family="Inter, Arial" font-size="13" font-weight="700" fill="#FF6B2C">freshness</text>
<rect x="1398" y="1081" width="192" height="30" rx="15" fill="white" stroke="#FF6B2C" stroke-width="1.5"/>
<text x="1410" y="1101" font-family="Inter, Arial" font-size="13" font-weight="700" fill="#FF6B2C">uncertainty penalties</text>
<text x="1190" y="1056" font-family="Inter, Arial" font-size="14" font-weight="700" fill="#FDE68A">Output: ranked, explainable decisions</text>
<text x="1190" y="1074" font-family="Inter, Arial" font-size="12" fill="#D1D5DB">Verify live availability before referral.</text>
<text x="70" y="1154" font-family="Inter, Arial" font-size="13" fill="#6B7280">Generated from exported Databricks notebooks and /Users/avirkothalanka/caresignal app code. No secrets included. Warehouse row-count query was blocked by free daily limit; only checked-in metrics are shown.</text>
</svg>